# xmcd
#
# Track frame offsets:
#	182
#	17507
#	55582
#	93657
#	127557
#
# Disc length: 2144 seconds
#
# Revision: 1
# Processed by: cddbd v1.5.2PL0 Copyright (c) Steve Scherf et al.
# Submitted via: audiograbber 1.83.01
#
DISCID=2d085e05
DTITLE=Cosa Nostra - CD Single
DYEAR=1998
DGENRE=
TTITLE0=Girl Talk (Nu Born Radio Mix)
TTITLE1=Girl Talk (Satoshi Tomiie And Ko Kimuras' Absolutely Fabulous Mix)
TTITLE2=Girl Talk (Sharp 'Star Bar' Vocal)
TTITLE3=Girl Talk (Sweet Daze Elektropoppers Dub)
TTITLE4=Girl Talk (Da Funk Starz Vocal Mix)
EXTD=
EXTT0=
EXTT1=
EXTT2=
EXTT3=
EXTT4=
PLAYORDER=
